<svg xmlns="http://www.w3.org/2000/svg" viewBox="0 0 500 500" width="100%" height="100%">
  <defs>
    <filter id="drop-shadow" x="-20%" y="-20%" width="140%" height="140%">
      <feDropShadow dx="0" dy="6" stdDeviation="8" flood-color="#000000" flood-opacity="0.12"/>
    </filter>
    
    <clipPath id="pin-clip">
      <path d="M 250 80 C 338 80 410 152 410 240 C 410 315 330 385 250 450 C 170 385 90 315 90 240 C 90 152 162 80 250 80 Z" />
    </clipPath>
  </defs>

  <path d="M 250 80 C 338 80 410 152 410 240 C 410 315 330 385 250 450 C 170 385 90 315 90 240 C 90 152 162 80 250 80 Z" 
        fill="#FFFFFF" 
        filter="url(#drop-shadow)" />

  <path d="M 250 115 C 319 115 375 171 375 240 C 375 295 315 345 250 395 C 185 345 125 295 125 240 C 125 171 181 115 250 115 Z" 
        fill="#0A1D37" />

  <path d="M 175,315 L 210,315 L 210,245 L 250,295 L 290,245 L 290,315 L 325,315 L 325,200 L 290,165 L 250,220 L 210,165 L 175,200 Z" 
        fill="#63C311" />

  <g clip-path="url(#pin-clip)">
    <polygon points="250,450 120,330 250,405" fill="#63C311" />
    <polygon points="250,450 380,330 250,405" fill="#3F8A07" />
  </g>
</svg>
